#define AMMOLIST_width 5
#define AMMOLIST_height 29
static unsigned char AMMOLIST_bits[] = {
   0x04, 0x0a, 0x0e, 0x0e, 0x0e, 0x00, 0x1b, 0x1b, 0x1b, 0x1b, 0x1b, 0x00,
   0x04, 0x0e, 0x0e, 0x1f, 0x15, 0x00, 0x1f, 0x15, 0x15, 0x15, 0x1f, 0x00,
   0x11, 0x0a, 0x0e, 0x1f, 0x04 };
